# xmcd
#
# Track frame offsets:
#	150
#	22975
#	52972
#	74707
#	107512
#	121127
#	133232
#	157277
#	177707
#	192702
#	213395
#	234130
#	251640
#	268237
#	297272
#	322815
#
# Disc length: 4610 seconds
#
# Revision: 2
# Processed by: cddbd v1.4PL0 Copyright (c) Steve Scherf et al.
# Submitted via: MusicWizard 6.0.2
#
DISCID=f8120010
DTITLE=Billy Paul - Very Best Of
DYEAR=1998
DGENRE=Soul
TTITLE0=Let 'Em In
TTITLE1=Your Song
TTITLE2=Me And Mrs Jones
TTITLE3=Let's Make A Baby
TTITLE4=Thanks For Saving My Life
TTITLE5=Billy Boy
TTITLE6=Am I Black Enough For You
TTITLE7=Mrs Robinson
TTITLE8=Without You
TTITLE9=It's Too Late
TTITLE10=Brown Baby
TTITLE11=Ebony Woman
TTITLE12=You're My Sweetness
TTITLE13=Let's Stay Together
TTITLE14=Only The Strong Survive
TTITLE15=Bring The Family Back
EXTD=
EXTT0=
EXTT1=
EXTT2=
EXTT3=
EXTT4=
EXTT5=
EXTT6=
EXTT7=
EXTT8=
EXTT9=
EXTT10=
EXTT11=
EXTT12=
EXTT13=
EXTT14=
EXTT15=
PLAYORDER=
